HIERARCHY
ROOT hip
{
  OFFSET -38.8969 86.1335 94.2241
  CHANNELS 6 Xposition Yposition Zposition Zrotation Xrotation Yrotation
  JOINT abdomen
  {
    OFFSET 0 20.6881 -0.73152
    CHANNELS 3 Zrotation Xrotation Yrotation
    JOINT chest
    {
      OFFSET 0 11.7043 -0.48768
      CHANNELS 3 Zrotation Xrotation Yrotation
      JOINT neck
      {
        OFFSET 0 22.1894 -2.19456
        CHANNELS 3 Zrotation Xrotation Yrotation
        JOINT head
        {
          OFFSET -0.24384 7.07133 1.2192
          CHANNELS 3 Zrotation Xrotation Yrotation
          JOINT leftEye
          {
            OFFSET 4.14528 8.04674 8.04672
            CHANNELS 3 Zrotation Xrotation Yrotation
            End Site
            {
              OFFSET 1 0 0
            }
          }
          JOINT rightEye
          {
            OFFSET -3.6576 8.04674 8.04672
            CHANNELS 3 Zrotation Xrotation Yrotation
            End Site
            {
              OFFSET 1 0 0
            }
          }
        }
      }
      JOINT rCollar
      {
        OFFSET -2.68224 19.2634 -4.8768
        CHANNELS 3 Zrotation Xrotation Yrotation
        JOINT rShldr
        {
          OFFSET -8.77824 -1.95073 1.46304
          CHANNELS 3 Zrotation Xrotation Yrotation
          JOINT rForeArm
          {
            OFFSET -28.1742 -1.7115 0.48768
            CHANNELS 3 Zrotation Xrotation Yrotation
            JOINT rHand
            {
              OFFSET -22.5879 0.773209 7.07136
              CHANNELS 3 Zrotation Xrotation Yrotation
              JOINT rThumb1
              {
                OFFSET -1.2192 -0.487915 3.41376
                CHANNELS 3 Zrotation Xrotation Yrotation
                JOINT rThumb2
                {
                  OFFSET -3.37035 -0.52449 3.41376
                  CHANNELS 3 Zrotation Xrotation Yrotation
                  End Site
                  {
                    OFFSET -1.78271 -1.18214 1.43049
                  }
                }
              }
              JOINT rIndex1
              {
                OFFSET -7.75947 0.938293 5.60832
                CHANNELS 3 Zrotation Xrotation Yrotation
                JOINT rIndex2
                {
                  OFFSET -2.54057 -0.884171 1.56538
                  CHANNELS 3 Zrotation Xrotation Yrotation
                  End Site
                  {
                    OFFSET -1.62519 -0.234802 1.16502
                  }
                }
              }
              JOINT rMid1
              {
                OFFSET -8.24714 1.18213 3.41376
                CHANNELS 3 Zrotation Xrotation Yrotation
                JOINT rMid2
                {
                  OFFSET -3.10165 -0.590103 1.0647
                  CHANNELS 3 Zrotation Xrotation Yrotation
                  End Site
                  {
                    OFFSET -2.48547 -0.328903 0.83742
                  }
                }
              }
              JOINT rRing1
              {
                OFFSET -8.82822 0.546677 1.51678
                CHANNELS 3 Zrotation Xrotation Yrotation
                JOINT rRing2
                {
                  OFFSET -2.60934 -0.819778 -0.0198488
                  CHANNELS 3 Zrotation Xrotation Yrotation
                  End Site
                  {
                    OFFSET -2.33842 -0.294052 0.168128
                  }
                }
              }
              JOINT rPinky1
              {
                OFFSET -8.27202 -0.0477905 -0.4584
                CHANNELS 3 Zrotation Xrotation Yrotation
                JOINT rPinky2
                {
                  OFFSET -1.82734 -0.647385 -0.700984
                  CHANNELS 3 Zrotation Xrotation Yrotation
                  End Site
                  {
                    OFFSET -1.69225 -0.51767 -0.607171
                  }
                }
              }
            }
          }
        }
      }
      JOINT lCollar
      {
        OFFSET 2.68224 19.2634 -4.8768
        CHANNELS 3 Zrotation Xrotation Yrotation
        JOINT lShldr
        {
          OFFSET 8.77824 -1.95073 1.46304
          CHANNELS 3 Zrotation Xrotation Yrotation
          JOINT lForeArm
          {
            OFFSET 28.1742 -1.7115 0.48768
            CHANNELS 3 Zrotation Xrotation Yrotation
            JOINT lHand
            {
              OFFSET 22.5879 0.773209 7.07136
              CHANNELS 3 Zrotation Xrotation Yrotation
              JOINT lThumb1
              {
                OFFSET 1.2192 -0.487915 3.41376
                CHANNELS 3 Zrotation Xrotation Yrotation
                JOINT lThumb2
                {
                  OFFSET 3.37035 -0.52449 3.41376
                  CHANNELS 3 Zrotation Xrotation Yrotation
                  End Site
                  {
                    OFFSET 1.78271 -1.18214 1.43049
                  }
                }
              }
              JOINT lIndex1
              {
                OFFSET 7.75947 0.938293 5.60832
                CHANNELS 3 Zrotation Xrotation Yrotation
                JOINT lIndex2
                {
                  OFFSET 2.54057 -0.884171 1.56538
                  CHANNELS 3 Zrotation Xrotation Yrotation
                  End Site
                  {
                    OFFSET 1.62519 -0.234802 1.16502
                  }
                }
              }
              JOINT lMid1
              {
                OFFSET 8.24714 1.18213 3.41376
                CHANNELS 3 Zrotation Xrotation Yrotation
                JOINT lMid2
                {
                  OFFSET 3.10165 -0.590103 1.0647
                  CHANNELS 3 Zrotation Xrotation Yrotation
                  End Site
                  {
                    OFFSET 2.48547 -0.328903 0.83742
                  }
                }
              }
              JOINT lRing1
              {
                OFFSET 8.82822 0.546677 1.51678
                CHANNELS 3 Zrotation Xrotation Yrotation
                JOINT lRing2
                {
                  OFFSET 2.60934 -0.819778 -0.0198488
                  CHANNELS 3 Zrotation Xrotation Yrotation
                  End Site
                  {
                    OFFSET 2.33842 -0.294052 0.168128
                  }
                }
              }
              JOINT lPinky1
              {
                OFFSET 8.27202 -0.0477905 -0.4584
                CHANNELS 3 Zrotation Xrotation Yrotation
                JOINT lPinky2
                {
                  OFFSET 1.82734 -0.647385 -0.700984
                  CHANNELS 3 Zrotation Xrotation Yrotation
                  End Site
                  {
                    OFFSET 1.69225 -0.51767 -0.607171
                  }
                }
              }
            }
          }
        }
      }
    }
  }
  JOINT rButtock
  {
    OFFSET -8.77824 4.35084 1.2192
    CHANNELS 3 Zrotation Xrotation Yrotation
    JOINT rThigh
    {
      OFFSET 0 -1.70687 -2.19456
      CHANNELS 3 Zrotation Xrotation Yrotation
      JOINT rShin
      {
        OFFSET 0 -36.8199 0.73152
        CHANNELS 3 Zrotation Xrotation Yrotation
        JOINT rFoot
        {
          OFFSET 0.73152 -45.1104 -5.12064
          CHANNELS 3 Zrotation Xrotation Yrotation
          End Site
          {
            OFFSET -1.1221 -3.69964 12.103
          }
        }
      }
    }
  }
  JOINT lButtock
  {
    OFFSET 8.77824 4.35084 1.2192
    CHANNELS 3 Zrotation Xrotation Yrotation
    JOINT lThigh
    {
      OFFSET 0 -1.70687 -2.19456
      CHANNELS 3 Zrotation Xrotation Yrotation
      JOINT lShin
      {
        OFFSET 0 -36.8199 0.73152
        CHANNELS 3 Zrotation Xrotation Yrotation
        JOINT lFoot
        {
          OFFSET -0.73152 -45.1104 -5.12064
          CHANNELS 3 Zrotation Xrotation Yrotation
          End Site
          {
            OFFSET 1.1221 -3.69964 12.103
          }
        }
      }
    }
  }
}
MOTION
Frames:	5
Frame Time:	0.00833333
-11.2236 85.1932 224.598 -0.435328 -0.00123187 0.00742722 0.572867 -0.00324252 0.0163893 0.158165 -0.00505501 0.0274051 -1.02642e-014 -7.95139e-016 1.18028e-016 -3.08489e-014 3.18055e-015 3.38555e-016 -0 0 0 -0 0 0 -5.1698e-015 1.78596e-017 2.48481e-016 -1.06215e-013 2.11209e-016 1.59028e-015 -1.86699e-012 5.6753e-013 4.77083e-014 -2.13437e-011 -5.03248e-013 1.62208e-013 -5.03514e-011 1.40612e-013 4.86625e-013 -8.69671e-011 2.38542e-013 8.53184e-013 -5.03466e-011 1.43125e-013 4.77083e-013 7.73091 5.47488 0.417314 -5.03514e-011 1.41137e-013 4.89805e-013 2.90554 0.965183 0.102902 -5.03487e-011 1.41038e-013 4.92986e-013 10.2786 0.731801 0.0259123 -5.03567e-011 1.39944e-013 5.08889e-013 2.22167 -0.733487 -0.20892 -5.26674e-015 1.66948e-017 -1.49089e-016 -1.10129e-013 9.93923e-017 -1.98785e-016 -1.86361e-012 -5.48844e-013 3.49861e-014 -2.13463e-011 6.08877e-013 2.06736e-013 -5.03462e-011 1.3175e-013 5.05708e-013 -8.69321e-011 2.3218e-013 8.69087e-013 -5.03514e-011 1.32788e-013 5.1525e-013 -7.73091 5.47488 -0.417314 -5.03457e-011 1.3249e-013 5.05708e-013 -2.90554 0.965183 -0.102902 -5.03543e-011 1.32192e-013 4.99347e-013 -10.2786 0.731801 -0.0259123 -5.03426e-011 1.32391e-013 4.86625e-013 -2.22167 -0.733487 0.20892 -2.03217e-016 0 -3.88251e-019 0.920344 -4.54484 -0.0776167 -0.00189435 2.68072 -0.00762747 -0.489786 1.8645 0.0936389 2.03217e-016 0 3.88251e-019 -0.0478225 -2.33548 0.0218172 0.00803223 -1.32111 0.0687536 0.481381 3.65688 -0.128874 
-14.8399 82.6056 212.936 -2.70873 2.34819 39.6953 0.392025 -4.17261 1.71402 -0.241696 -0.0665228 0.45459 -7.44292 5.49589 -0.556118 15.3924 -4.33111 -0.52738 -0 0 0 -0 0 0 -1.34115e-014 2.98922e-015 3.1443e-013 22.6194 7.69316 -1.27741 -4.01682 -1.78654 6.31512 0.0747962 6.07292 0.836275 -1.35268e-009 -5.43608e-010 9.72231e-012 -2.33514e-009 -9.65124e-010 4.04454e-011 -1.35268e-009 -5.43605e-010 9.71277e-012 7.73091 5.47488 0.417314 -1.35269e-009 -5.43608e-010 9.72274e-012 2.90554 0.965183 0.102902 -1.35268e-009 -5.43608e-010 9.72815e-012 10.2786 0.731801 0.0259123 -1.35269e-009 -5.43608e-010 9.74211e-012 2.22167 -0.733487 -0.20892 -1.34991e-014 2.98695e-015 3.1407e-013 -21.3735 12.5053 1.87717 5.16657 -2.57292 -7.81003 -0.191184 -9.73031 1.2975 -5.87418e-011 -2.87444e-011 1.49429e-011 -1.03951e-010 -5.04684e-011 2.43218e-011 -5.87457e-011 -2.87425e-011 1.49487e-011 -7.73091 5.47488 -0.417314 -5.87405e-011 -2.87425e-011 1.4941e-011 -2.90554 0.965183 -0.102902 -5.87488e-011 -2.87435e-011 1.49356e-011 -10.2786 0.731801 -0.0259123 -5.87372e-011 -2.87421e-011 1.49246e-011 -2.22167 -0.733487 0.20892 -2.03217e-016 0 -3.88251e-019 -0.790785 -6.67305 2.20138 0.019138 7.26262 0.0883154 0.121676 -4.99758 4.48352 2.03217e-016 0 3.88251e-019 -0.220358 -9.80037 3.7738 0.00392598 7.74727 -0.063211 -0.167589 -2.36195 -5.02419 
-14.9548 82.5724 212.913 -7.31554 0.918231 81.6151 0.480013 -8.57024 3.53952 -0.664958 -0.130099 0.906131 -15.1928 11.3029 -1.16107 31.5732 -8.90333 -1.09704 -0 0 0 -0 0 0 -1.98683e-014 4.82986e-015 6.79055e-013 46.9178 15.8131 -2.70754 -7.8361 -3.60167 13.0081 -0.0431416 12.4909 1.75248 -2.80819e-009 -1.15538e-009 -1.21617e-012 -4.84795e-009 -2.05103e-009 4.79299e-011 -2.80819e-009 -1.15537e-009 -1.22571e-012 7.73091 5.47488 0.417314 -2.80819e-009 -1.15538e-009 -1.21874e-012 2.90554 0.965183 0.102902 -2.80819e-009 -1.15538e-009 -1.21079e-012 10.2786 0.731801 0.0259123 -2.8082e-009 -1.15538e-009 -1.19888e-012 2.22167 -0.733487 -0.20892 -1.99459e-014 4.82623e-015 6.78732e-013 -44.9464 25.663 4.18458 9.86812 -5.12946 -16.1091 0.113437 -19.9628 2.79465 -7.6579e-011 -7.57733e-011 6.36946e-011 -1.38415e-010 -1.32931e-010 1.06581e-010 -7.65815e-011 -7.57705e-011 6.36962e-011 -7.73091 5.47488 -0.417314 -7.65767e-011 -7.57702e-011 6.36904e-011 -2.90554 0.965183 -0.102902 -7.65848e-011 -7.5772e-011 6.36861e-011 -10.2786 0.731801 -0.0259123 -7.65732e-011 -7.57694e-011 6.36769e-011 -2.22167 -0.733487 0.20892 -2.03217e-016 0 -3.88251e-019 -2.41036 -8.89248 4.61187 0.0243566 12.083 0.1923 1.93463 -12.1247 9.32151 2.03217e-016 0 3.88251e-019 0.711944 -17.5723 7.99908 0.0465851 17.3293 -0.211128 -1.97507 -8.60052 -10.3046 
-15.0621 82.5286 212.891 -9.43805 -4.41681 118.641 0.785709 -12.4667 5.21904 -1.03867 -0.189415 1.30896 -21.9971 16.4813 -1.73186 45.9328 -12.9889 -1.61906 -0 0 0 -0 0 0 -2.9895e-014 8.93195e-015 9.42793e-013 68.9621 23.0315 -4.12722 -10.889 -5.0997 19.0143 -0.331087 18.2028 2.62626 -3.95735e-009 -1.63111e-009 2.81937e-011 -6.83148e-009 -2.89585e-009 1.1963e-010 -3.95734e-009 -1.6311e-009 2.81841e-011 7.73091 5.47488 0.417314 -3.95735e-009 -1.63111e-009 2.81886e-011 2.90554 0.965183 0.102902 -3.95735e-009 -1.63111e-009 2.81985e-011 10.2786 0.731801 0.0259123 -3.95735e-009 -1.63111e-009 2.82086e-011 2.22167 -0.733487 -0.20892 -2.99637e-014 8.92747e-015 9.42507e-013 -67.1108 37.3332 6.92069 13.4469 -7.14631 -23.6006 0.909854 -29.1265 4.39287 -7.55332e-011 -8.64968e-011 4.38174e-011 -1.37988e-010 -1.5187e-010 7.12271e-011 -7.55344e-011 -8.64931e-011 4.38156e-011 -7.73091 5.47488 -0.417314 -7.553e-011 -8.64925e-011 4.38115e-011 -2.90554 0.965183 -0.102902 -7.55379e-011 -8.64949e-011 4.38082e-011 -10.2786 0.731801 -0.0259123 -7.55264e-011 -8.64912e-011 4.38005e-011 -2.22167 -0.733487 0.20892 -2.03217e-016 0 -3.88251e-019 -3.69803 -10.8681 6.83732 0.0134337 16.4263 0.289891 4.60523 -18.253 13.9259 2.03217e-016 0 3.88251e-019 2.59395 -24.2976 12.2082 0.1312 25.8836 -0.361653 -4.58675 -13.9383 -15.2623 
-15.181 82.4875 212.87 -8.0594 -9.14734 144.51 1.09628 -15.1527 6.42884 -1.29034 -0.238123 1.59002 -26.675 20.0945 -2.15706 55.915 -15.862 -1.98675 -0 0 0 -0 0 0 -4.88465e-014 1.86877e-014 9.54316e-013 84.5656 28.0414 -5.24126 -12.8348 -6.05164 23.2378 -0.643056 22.1648 3.28215 -4.34064e-009 -1.76672e-009 1.58474e-010 -7.49182e-009 -3.13797e-009 3.51868e-010 -4.34063e-009 -1.76672e-009 1.58465e-010 7.73091 5.47488 0.417314 -4.34064e-009 -1.76672e-009 1.58468e-010 2.90554 0.965183 0.102902 -4.34063e-009 -1.76672e-009 1.58478e-010 10.2786 0.731801 0.0259123 -4.34064e-009 -1.76672e-009 1.58487e-010 2.22167 -0.733487 -0.20892 -4.89091e-014 1.86836e-014 9.54067e-013 -83.5302 45.4515 9.56613 15.6378 -8.35499 -28.9117 1.86509 -35.6772 5.79123 -2.72796e-011 -6.45653e-012 -1.47632e-010 -5.03323e-011 -1.20002e-011 -2.58158e-010 -2.728e-011 -6.45215e-012 -1.47635e-010 -7.73091 5.47488 -0.417314 -2.7276e-011 -6.45126e-012 -1.47638e-010 -2.90554 0.965183 -0.102902 -2.72842e-011 -6.45364e-012 -1.47641e-010 -10.2786 0.731801 -0.0259123 -2.72729e-011 -6.44977e-012 -1.47648e-010 -2.22167 -0.733487 0.20892 -2.03217e-016 0 -3.88251e-019 -4.50758 -12.2845 8.53868 -0.00420507 19.5771 0.363029 7.05247 -22.3471 17.2842 2.03217e-016 0 3.88251e-019 4.54745 -28.808 15.5213 0.222098 31.8689 -0.484536 -6.99749 -17.4779 -18.9413 
